# xmcd
#
# Track frame offsets:
# 150
# 12995
# 33465
# 51552
# 69945
# 88307
# 109957
# 128040
# 145115
# 158302
# 169090
# 182740
#
# Disc length: 2566 seconds
#
#
# Revision: 0
# Processed by: cddbd v1.5.1PL0 Copyright (c) Steve Scherf et al.
# Submitted via: FreeRIP 2.51 
#
DISCID=9f0a040c
DTITLE=Kasey Chambers - The captain
DYEAR=1900
DGENRE=New country
TTITLE0=Cry like a baby
TTITLE1=The captain
TTITLE2=This flower
TTITLE3=You got the car
TTITLE4=These pines
TTITLE5=Don't talk back
TTITLE6=Southern kind of life
TTITLE7=Mr Baylis
TTITLE8=The hard way
TTITLE9=Last hard bible
TTITLE10=Don't go
TTITLE11=We're all gonna die someday
EXTD=
EXTT0=
EXTT1=
EXTT2=
EXTT3=
EXTT4=
EXTT5=
EXTT6=
EXTT7=
EXTT8=
EXTT9=
EXTT10=
EXTT11=
PLAYORDER=
